<mxfile host="app.diagrams.net" modified="2024-07-17T17:34:25.801Z" agent="Mozilla/5.0 (X11; Ubuntu; Linux x86_64; rv:128.0) Gecko/20100101 Firefox/128.0" etag="UZtOUiXggTCyp-lYHu-G" version="24.7.0" type="github">
  <diagram name="Page-1" id="Wu8qnI8EkqbMbkinVwJV">
    <mxGraphModel dx="1135" dy="69" grid="1" gridSize="10" guides="1" tooltips="1" connect="1" arrows="1" fold="1" page="0" pageScale="1" pageWidth="827" pageHeight="1169" math="0" shadow="0">
      <root>
        <mxCell id="0" />
        <mxCell id="1" parent="0" />
        <mxCell id="exG3C8JUwHEc_LniaptH-1" value="&lt;div&gt;RainFall&lt;/div&gt;&lt;div&gt;&lt;br&gt;&lt;/div&gt;" style="swimlane;fontStyle=1;align=center;verticalAlign=top;childLayout=stackLayout;horizontal=1;startSize=26;horizontalStack=0;resizeParent=1;resizeParentMax=0;resizeLast=0;collapsible=1;marginBottom=0;whiteSpace=wrap;html=1;" vertex="1" parent="1">
          <mxGeometry x="-100" y="430" width="210" height="150" as="geometry" />
        </mxCell>
        <mxCell id="exG3C8JUwHEc_LniaptH-2" value="- monthlyRainfall: double[]" style="text;strokeColor=none;fillColor=none;align=left;verticalAlign=top;spacingLeft=4;spacingRight=4;overflow=hidden;rotatable=0;points=[[0,0.5],[1,0.5]];portConstraint=eastwest;whiteSpace=wrap;html=1;" vertex="1" parent="exG3C8JUwHEc_LniaptH-1">
          <mxGeometry y="26" width="210" height="26" as="geometry" />
        </mxCell>
        <mxCell id="exG3C8JUwHEc_LniaptH-3" value="" style="line;strokeWidth=1;fillColor=none;align=left;verticalAlign=middle;spacingTop=-1;spacingLeft=3;spacingRight=3;rotatable=0;labelPosition=right;points=[];portConstraint=eastwest;strokeColor=inherit;" vertex="1" parent="exG3C8JUwHEc_LniaptH-1">
          <mxGeometry y="52" width="210" height="8" as="geometry" />
        </mxCell>
        <mxCell id="exG3C8JUwHEc_LniaptH-4" value="&lt;div&gt;+ RainFall(monthly: double[])&lt;/div&gt;&lt;div&gt;+ getTotalRainfall(): double&lt;/div&gt;&lt;div&gt;+ getAverage(): double&lt;/div&gt;&lt;div&gt;+ getMinMonth(): int&lt;/div&gt;&lt;div&gt;+ getMaxMonth(): int&lt;br&gt;&lt;/div&gt;" style="text;strokeColor=none;fillColor=none;align=left;verticalAlign=top;spacingLeft=4;spacingRight=4;overflow=hidden;rotatable=0;points=[[0,0.5],[1,0.5]];portConstraint=eastwest;whiteSpace=wrap;html=1;" vertex="1" parent="exG3C8JUwHEc_LniaptH-1">
          <mxGeometry y="60" width="210" height="90" as="geometry" />
        </mxCell>
      </root>
    </mxGraphModel>
  </diagram>
</mxfile>
